<svg xmlns="http://www.w3.org/2000/svg" viewBox="0 0 800 480" width="100%" height="100%">
  <defs>
    <linearGradient id="bgGrad_11shiraztoswitzerlandpathwaysvg" x1="0%" y1="0%" x2="100%" y2="100%">
      <stop offset="0%" stop-color="#1e1b4b" />
      <stop offset="60%" stop-color="#3730a3" />
      <stop offset="100%" stop-color="#09090b" />
    </linearGradient>
    <pattern id="grid_11shiraztoswitzerlandpathwaysvg" width="40" height="40" patternUnits="userSpaceOnUse">
      <path d="M 40 0 L 0 0 0 40" fill="none" stroke="#ffffff" stroke-width="1" opacity="0.04" />
    </pattern>
  </defs>

  <!-- Background -->
  <rect width="800" height="480" fill="url(#bgGrad_11shiraztoswitzerlandpathwaysvg)" />
  <rect width="800" height="480" fill="url(#grid_11shiraztoswitzerlandpathwaysvg)" />

  <!-- Ambient Glow -->
  <circle cx="400" cy="180" r="220" fill="#a855f7" opacity="0.18" filter="blur(40px)" />

  <!-- Central Symbol / Illustration -->
  <g transform="translate(0, -10)">
    <circle cx="220" cy="200" r="28" fill="#4338ca" stroke="#818cf8" stroke-width="3"/>
      <text x="220" y="206" font-family="sans-serif" font-size="14" font-weight="bold" fill="#ffffff" text-anchor="middle">SU</text>
      <circle cx="580" cy="200" r="28" fill="#e11d48" stroke="#fb7185" stroke-width="3"/>
      <text x="580" y="206" font-family="sans-serif" font-size="14" font-weight="bold" fill="#ffffff" text-anchor="middle">CH</text>
      <path d="M 250,200 Q 400,100 550,200" fill="none" stroke="#f43f5e" stroke-width="4" stroke-dasharray="8,6"/>
      <polygon points="555,200 540,190 545,205" fill="#f43f5e"/>
      <circle cx="400" cy="150" r="14" fill="#fbbf24"/>
      <polygon points="400,140 405,152 417,152 407,160 411,172 400,164 389,172 393,160 383,152 395,152" fill="#ffffff"/>
  </g>

  <!-- Top Badge -->
  <rect x="36" y="32" width="240" height="32" rx="16" fill="#000000" fill-opacity="0.4" stroke="#a855f7" stroke-width="1.5"/>
  <text x="48" y="52" font-family="-apple-system, BlinkMacSystemFont, 'Segoe UI', Roboto, sans-serif" font-size="11" font-weight="700" fill="#ffffff" letter-spacing="1.5">JOURNEY • SHIRAZ TO SWITZERLAND</text>

  <!-- Swiss Flag icon in top-right -->
  <rect x="724" y="32" width="40" height="32" rx="6" fill="#da291c" />
  <rect x="740" y="38" width="8" height="20" fill="#ffffff" />
  <rect x="734" y="44" width="20" height="8" fill="#ffffff" />

  <!-- Bottom Details Gradient Box -->
  <rect x="0" y="350" width="800" height="130" fill="url(#bgGrad_11shiraztoswitzerlandpathwaysvg)" opacity="0.95" />
  <rect x="0" y="350" width="800" height="1" fill="#ffffff" opacity="0.1" />

  <text x="40" y="395" font-family="-apple-system, BlinkMacSystemFont, 'Segoe UI', Roboto, sans-serif" font-size="24" font-weight="800" fill="#ffffff">Academic Pathway: Shiraz to Switzerland</text>
  <text x="40" y="425" font-family="-apple-system, BlinkMacSystemFont, 'Segoe UI', Roboto, sans-serif" font-size="14" font-weight="500" fill="#d4d4d8">From Rank #1 Shiraz University to Swiss Research Centers</text>
  <text x="40" y="452" font-family="monospace" font-size="12" fill="#a855f7">/media/blog/switzerland-dream/11-shiraz-to-switzerland-pathway.jpg</text>
</svg>